# xmcd
#
# Track frame offsets:
#	150
#	43161
#	106609
#	179510
#	197444
#	256913
#	303958
#
# Disc length: 4556 seconds
#
# Revision: 1
# Processed by: cddbd v1.5.2PL0 Copyright (c) Steve Scherf et al.
# Submitted via: audiograbber 1.83.01
#
DISCID=5211ca07
DTITLE=Grateful Dead - 78-08-31 Red Rocks Amphitheatre, Morrison CO
DYEAR=1900
DGENRE=
TTITLE0=Terrapin Station
TTITLE1=Playing In The Band
TTITLE2=Drums
TTITLE3=Space
TTITLE4=Not Fade Away
TTITLE5=Black Peter
TTITLE6=Sugar Magnolia
EXTD=
EXTT0=
EXTT1=
EXTT2=
EXTT3=
EXTT4=
EXTT5=
EXTT6=
PLAYORDER=
